PathFileType	4	(X/Y/Z)	 2.2Hzhigh3min.trc
DataRate	CameraRate	NumFrames	NumMarkers	Units	OrigDataRate	OrigDataStartFrame	OrigNumFrames
200	200	11	35	m	200	376	1000
Frame#	Time	C7			LSH			RSH			MAN			RASI			LASI			HIPR			HIPL			RPSI			LPSI			COX			RTHI1			RTHI2			RTHI3			RTHI4			RSHA1			RSHA2			RSHA3			RSHA4			RHEEL			RMET5			RMET1			RTOE			LTHI1			LTHI2			LTHI3			LTHI4			LSHA1			LSHA2			LSHA3			LSHA4			LHEEL			LMET5			LMET1			LTOE			
		X1	Y1	Z1	X2	Y2	Z2	X3	Y3	Z3	X4	Y4	Z4	X5	Y5	Z5	X6	Y6	Z6	X7	Y7	Z7	X8	Y8	Z8	X9	Y9	Z9	X10	Y10	Z10	X11	Y11	Z11	X12	Y12	Z12	X13	Y13	Z13	X14	Y14	Z14	X15	Y15	Z15	X16	Y16	Z16	X17	Y17	Z17	X18	Y18	Z18	X19	Y19	Z19	X20	Y20	Z20	X21	Y21	Z21	X22	Y22	Z22	X23	Y23	Z23	X24	Y24	Z24	X25	Y25	Z25	X26	Y26	Z26	X27	Y27	Z27	X28	Y28	Z28	X29	Y29	Z29	X30	Y30	Z30	X31	Y31	Z31	X32	Y32	Z32	X33	Y33	Z33	X34	Y34	Z34	X35	Y35	Z35	
376	1.8800	-0.355797	1.430760	-0.561926	-0.283284	1.397239	-0.733482	-0.298115	1.412254	-0.392438	-0.240376	1.385912	-0.561098	-0.201738	1.003538	-0.471222	-0.200729	1.009714	-0.644915	-0.264712	1.053715	-0.422190	-0.254446	1.061596	-0.677533	-0.343009	1.030262	-0.486271	-0.341145	1.037714	-0.599970	-0.348605	1.040689	-0.543836	-0.280715	0.829764	-0.378277	-0.281580	0.767808	-0.374397	-0.210168	0.773334	-0.391838	-0.217808	0.832987	-0.393614	-0.344878	0.380796	-0.354879	-0.357106	0.339548	-0.358351	-0.297417	0.329300	-0.363113	-0.290138	0.369425	-0.362717	-0.415312	0.149913	-0.413566	-0.301772	0.036141	-0.360141	-0.269236	0.041914	-0.428777	-0.250244	0.028544	-0.423005	-0.310656	0.791749	-0.722948	-0.307591	0.732245	-0.722855	-0.236260	0.736801	-0.732931	-0.246716	0.797154	-0.733228	-0.362579	0.358212	-0.742753	-0.371493	0.318802	-0.739243	-0.309630	0.310998	-0.745918	-0.308989	0.354634	-0.748825	-0.408429	0.157922	-0.696262	-0.296614	0.040074	-0.750520	-0.261084	0.043586	-0.689697	-0.244978	0.029652	-0.698073	
377	1.8850	-0.356653	1.435320	-0.562102	-0.284111	1.402132	-0.733504	-0.299149	1.417243	-0.392686	-0.241308	1.391114	-0.561206	-0.201234	1.008179	-0.471191	-0.200316	1.014383	-0.644386	-0.263808	1.058810	-0.422133	-0.253638	1.066670	-0.677182	-0.342070	1.035731	-0.486203	-0.340249	1.043077	-0.599860	-0.347764	1.046097	-0.543751	-0.281428	0.835239	-0.378022	-0.283037	0.773290	-0.373966	-0.211510	0.777947	-0.390943	-0.218391	0.837635	-0.392972	-0.346856	0.384835	-0.354524	-0.358204	0.343324	-0.357769	-0.298251	0.334246	-0.361810	-0.291650	0.374370	-0.361855	-0.411812	0.154007	-0.412258	-0.300575	0.037555	-0.360270	-0.267243	0.043931	-0.427745	-0.248841	0.029494	-0.422073	-0.311754	0.797459	-0.722537	-0.309253	0.737894	-0.722689	-0.238001	0.741877	-0.733446	-0.247832	0.802254	-0.733319	-0.363131	0.361852	-0.742963	-0.371418	0.322323	-0.739565	-0.309473	0.315542	-0.746640	-0.309544	0.359184	-0.749435	-0.405394	0.162190	-0.696687	-0.295496	0.042137	-0.750041	-0.259389	0.045903	-0.690298	-0.243802	0.031044	-0.698664	
378	1.8900	-0.357520	1.439589	-0.562273	-0.284937	1.406755	-0.733533	-0.300237	1.421909	-0.392864	-0.242251	1.396045	-0.561295	-0.200705	1.012468	-0.471133	-0.199935	1.018686	-0.643871	-0.262842	1.063512	-0.421995	-0.252774	1.071372	-0.676888	-0.341164	1.040971	-0.486080	-0.339425	1.048223	-0.599760	-0.346965	1.051311	-0.543629	-0.282237	0.840381	-0.377757	-0.284619	0.778456	-0.373568	-0.212949	0.782255	-0.390029	-0.219077	0.841979	-0.392266	-0.348701	0.388731	-0.354189	-0.359241	0.346991	-0.357219	-0.299096	0.338981	-0.360594	-0.293033	0.379059	-0.361188	-0.408685	0.157972	-0.411035	-0.299239	0.039351	-0.360321	-0.265061	0.046360	-0.426472	-0.247202	0.030869	-0.420840	-0.312843	0.802729	-0.722152	-0.310856	0.743136	-0.722570	-0.239689	0.746599	-0.733969	-0.248952	0.806993	-0.733441	-0.363646	0.365431	-0.743088	-0.371393	0.325798	-0.739767	-0.309404	0.319883	-0.747250	-0.310076	0.363532	-0.749956	-0.402822	0.166248	-0.696943	-0.294435	0.044485	-0.749562	-0.257684	0.048654	-0.690924	-0.242529	0.032935	-0.699281	
379	1.8950	-0.358381	1.443583	-0.562430	-0.285768	1.411105	-0.733564	-0.301323	1.426259	-0.393012	-0.243163	1.400699	-0.561373	-0.200172	1.016410	-0.471057	-0.199601	1.022637	-0.643389	-0.261815	1.067850	-0.421794	-0.251883	1.075720	-0.676652	-0.340307	1.045977	-0.485898	-0.338700	1.053138	-0.599660	-0.346233	1.056314	-0.543464	-0.283154	0.845160	-0.377494	-0.286304	0.783263	-0.373238	-0.214474	0.786249	-0.389131	-0.219877	0.846008	-0.391520	-0.350379	0.392490	-0.353859	-0.360221	0.350564	-0.356722	-0.299932	0.343486	-0.359480	-0.294461	0.383609	-0.360475	-0.406040	0.161738	-0.410010	-0.297809	0.041553	-0.360241	-0.262800	0.049197	-0.424966	-0.245409	0.032761	-0.419281	-0.313920	0.807512	-0.721786	-0.312375	0.747930	-0.722493	-0.241297	0.750948	-0.734496	-0.250072	0.811354	-0.733624	-0.364167	0.368978	-0.743098	-0.371475	0.329254	-0.739812	-0.309472	0.324024	-0.747757	-0.310630	0.367672	-0.750383	-0.400790	0.170057	-0.697035	-0.293419	0.047137	-0.749116	-0.256048	0.051810	-0.691505	-0.241209	0.035374	-0.699863	
380	1.9000	-0.359219	1.447322	-0.562559	-0.286594	1.415175	-0.733599	-0.302366	1.430263	-0.393192	-0.244016	1.405062	-0.561443	-0.199668	1.020023	-0.470967	-0.199335	1.026256	-0.642963	-0.260759	1.071848	-0.421540	-0.250996	1.079737	-0.676476	-0.339528	1.050732	-0.485658	-0.338085	1.057824	-0.599540	-0.345581	1.061094	-0.543258	-0.284181	0.849542	-0.377247	-0.288068	0.787674	-0.373002	-0.216062	0.789937	-0.388275	-0.220811	0.849737	-0.390748	-0.351868	0.396126	-0.353545	-0.361143	0.354058	-0.356286	-0.300733	0.347731	-0.358477	-0.295763	0.387898	-0.359796	-0.403943	0.165259	-0.409278	-0.296372	0.044168	-0.359969	-0.260594	0.052407	-0.423270	-0.243560	0.035240	-0.417424	-0.314989	0.811798	-0.721475	-0.313786	0.752254	-0.722441	-0.242804	0.754917	-0.735015	-0.251187	0.815337	-0.733863	-0.364727	0.372506	-0.742971	-0.371701	0.332716	-0.739677	-0.309725	0.327969	-0.748171	-0.311239	0.371614	-0.750718	-0.399344	0.173608	-0.696976	-0.292488	0.050054	-0.748718	-0.254556	0.055326	-0.691989	-0.239904	0.038365	-0.700358	
381	1.9050	-0.360014	1.450824	-0.562658	-0.287379	1.418959	-0.733635	-0.303385	1.434024	-0.393268	-0.244817	1.409136	-0.561500	-0.199224	1.023333	-0.470887	-0.199143	1.029574	-0.642601	-0.259707	1.075539	-0.421253	-0.250155	1.083447	-0.676358	-0.338855	1.055235	-0.485361	-0.337608	1.062253	-0.599389	-0.345034	1.065639	-0.543015	-0.285362	0.853530	-0.376997	-0.289899	0.791681	-0.372849	-0.217679	0.793347	-0.387491	-0.221882	0.853188	-0.389980	-0.353147	0.399626	-0.353259	-0.362003	0.357469	-0.355916	-0.301506	0.351698	-0.357594	-0.296911	0.391889	-0.359136	-0.402466	0.168511	-0.408850	-0.295056	0.047148	-0.359450	-0.258585	0.055901	-0.421452	-0.241785	0.038262	-0.415331	-0.316037	0.815585	-0.721212	-0.315058	0.756088	-0.722381	-0.244169	0.758517	-0.735512	-0.252292	0.818937	-0.734129	-0.365336	0.375983	-0.742667	-0.372090	0.336158	-0.739349	-0.310177	0.331702	-0.748488	-0.311918	0.375357	-0.750951	-0.398498	0.176913	-0.696790	-0.291691	0.053184	-0.748381	-0.253273	0.059125	-0.692347	-0.238683	0.041862	-0.700733	
382	1.9100	-0.360721	1.454087	-0.562701	-0.288167	1.422482	-0.733665	-0.304327	1.437504	-0.393345	-0.245567	1.412914	-0.561542	-0.198879	1.026353	-0.470824	-0.199034	1.032609	-0.642320	-0.258712	1.078955	-0.420952	-0.249403	1.086878	-0.676293	-0.338312	1.059469	-0.485018	-0.337283	1.066415	-0.599206	-0.344619	1.069930	-0.542738	-0.286729	0.857140	-0.376723	-0.291700	0.795282	-0.372828	-0.219287	0.796521	-0.386790	-0.223091	0.856400	-0.389237	-0.354207	0.403003	-0.353001	-0.362797	0.360784	-0.355627	-0.302249	0.355378	-0.356841	-0.297889	0.395572	-0.358513	-0.401597	0.171514	-0.408719	-0.293998	0.050406	-0.358664	-0.256897	0.059550	-0.419593	-0.240212	0.041707	-0.413141	-0.317057	0.818878	-0.721000	-0.316168	0.759442	-0.722302	-0.245370	0.761761	-0.735962	-0.253372	0.822192	-0.734436	-0.365990	0.379396	-0.742175	-0.372628	0.339557	-0.738835	-0.310814	0.335211	-0.748693	-0.312666	0.378886	-0.751073	-0.398207	0.179976	-0.696468	-0.291087	0.056463	-0.748113	-0.252251	0.063119	-0.692586	-0.237605	0.045765	-0.700992	
383	1.9150	-0.361324	1.457133	-0.562688	-0.289014	1.425751	-0.733682	-0.305178	1.440714	-0.393379	-0.246257	1.416392	-0.561571	-0.198659	1.029106	-0.470796	-0.199015	1.035382	-0.642127	-0.257798	1.082144	-0.420671	-0.248787	1.090059	-0.676278	-0.337920	1.063422	-0.484647	-0.337124	1.070302	-0.598987	-0.344322	1.073918	-0.542414	-0.288257	0.860387	-0.376444	-0.293373	0.798479	-0.372933	-0.220836	0.799517	-0.386177	-0.224415	0.859424	-0.388551	-0.355067	0.406237	-0.352776	-0.363523	0.363985	-0.355427	-0.302946	0.358765	-0.356211	-0.298691	0.398943	-0.357935	-0.401264	0.174307	-0.408833	-0.293315	0.053820	-0.357640	-0.255629	0.063213	-0.417777	-0.238966	0.045388	-0.410959	-0.318014	0.821735	-0.720824	-0.317096	0.762355	-0.722204	-0.246385	0.764678	-0.736341	-0.254399	0.825119	-0.734755	-0.366671	0.382714	-0.741526	-0.373284	0.342886	-0.738145	-0.311591	0.338503	-0.748775	-0.313460	0.382188	-0.751072	-0.398413	0.182827	-0.696017	-0.290736	0.059819	-0.747926	-0.251528	0.067194	-0.692739	-0.236737	0.049920	-0.701169	
384	1.9200	-0.361811	1.459971	-0.562619	-0.289879	1.428763	-0.733687	-0.305927	1.443681	-0.393377	-0.246881	1.419575	-0.561589	-0.198590	1.031628	-0.470813	-0.199088	1.037917	-0.642025	-0.257036	1.085121	-0.420421	-0.248347	1.093000	-0.676299	-0.337696	1.067080	-0.484260	-0.337134	1.073903	-0.598739	-0.344155	1.077592	-0.542055	-0.289905	0.863308	-0.376182	-0.294893	0.801315	-0.373112	-0.222280	0.802375	-0.385638	-0.225806	0.862298	-0.387944	-0.355746	0.409322	-0.352597	-0.364185	0.367048	-0.355317	-0.303585	0.361857	-0.355694	-0.299337	0.401999	-0.357377	-0.401389	0.176952	-0.409093	-0.293091	0.057267	-0.356443	-0.254857	0.066737	-0.416057	-0.238157	0.049079	-0.408863	-0.318896	0.824195	-0.720683	-0.317830	0.764865	-0.722080	-0.247196	0.767314	-0.736638	-0.255355	0.827756	-0.735035	-0.367360	0.385925	-0.740780	-0.374016	0.346100	-0.737321	-0.312468	0.341561	-0.748731	-0.314264	0.385261	-0.750956	-0.399044	0.185494	-0.695428	-0.290702	0.063177	-0.747810	-0.251130	0.071243	-0.692857	-0.236151	0.054149	-0.701321	
385	1.9250	-0.362182	1.462608	-0.562499	-0.290723	1.431520	-0.733677	-0.306574	1.446438	-0.393290	-0.247439	1.422462	-0.561596	-0.198681	1.033939	-0.470877	-0.199249	1.040235	-0.642007	-0.256480	1.087897	-0.420213	-0.248120	1.095715	-0.676345	-0.337646	1.070436	-0.483878	-0.337308	1.077193	-0.598472	-0.344129	1.080931	-0.541668	-0.291625	0.865933	-0.375942	-0.296228	0.803841	-0.373315	-0.223568	0.805126	-0.385156	-0.227211	0.865042	-0.387427	-0.356270	0.412222	-0.352458	-0.364783	0.369942	-0.355278	-0.304179	0.364661	-0.355280	-0.299845	0.404769	-0.356841	-0.401894	0.179497	-0.409411	-0.293348	0.060608	-0.355175	-0.254613	0.069991	-0.414462	-0.237863	0.052547	-0.406906	-0.319681	0.826315	-0.720552	-0.318366	0.767023	-0.721933	-0.247794	0.769707	-0.736840	-0.256219	0.830143	-0.735269	-0.368034	0.388999	-0.739987	-0.374782	0.349162	-0.736414	-0.313389	0.344384	-0.748560	-0.315047	0.388097	-0.750735	-0.400016	0.188003	-0.694693	-0.291002	0.066492	-0.747770	-0.251078	0.075134	-0.692978	-0.235903	0.058273	-0.701501	
386	1.9300	-0.362441	1.465051	-0.562327	-0.291533	1.434025	-0.733655	-0.307089	1.448913	-0.393248	-0.247929	1.425051	-0.561591	-0.198938	1.036058	-0.470972	-0.199500	1.042359	-0.642067	-0.256188	1.090474	-0.420047	-0.248131	1.098212	-0.676405	-0.337764	1.073472	-0.483526	-0.337630	1.080171	-0.598206	-0.344239	1.083917	-0.541267	-0.293276	0.868273	-0.375804	-0.297334	0.806103	-0.373523	-0.224669	0.807777	-0.384706	-0.228566	0.867662	-0.387011	-0.356676	0.414936	-0.352370	-0.365320	0.372655	-0.355287	-0.304723	0.367193	-0.354939	-0.300238	0.407268	-0.356367	-0.402668	0.181967	-0.409710	-0.294066	0.063744	-0.353948	-0.254894	0.072891	-0.413021	-0.238120	0.055638	-0.405136	-0.320354	0.828156	-0.720421	-0.318707	0.768890	-0.721754	-0.248185	0.771890	-0.736935	-0.256973	0.832339	-0.735464	-0.368671	0.391929	-0.739195	-0.375556	0.352061	-0.735473	-0.314321	0.346980	-0.748271	-0.315784	0.390687	-0.750424	-0.401246	0.190362	-0.693802	-0.291650	0.069713	-0.747793	-0.251383	0.078771	-0.693132	-0.236032	0.062142	-0.701746	
